<svg width="311" height="72" viewBox="0 0 311 72" fill="none" xmlns="http://www.w3.org/2000/svg">
<path d="M77.6578 36.365H82.8378V46.305C81.5078 47.3083 79.9678 48.0783 78.2178 48.615C76.4678 49.1517 74.7061 49.42 72.9328 49.42C70.3894 49.42 68.1028 48.8833 66.0728 47.81C64.0428 46.7133 62.4444 45.2083 61.2778 43.295C60.1344 41.3583 59.5628 39.1767 59.5628 36.75C59.5628 34.3233 60.1344 32.1533 61.2778 30.24C62.4444 28.3033 64.0544 26.7983 66.1078 25.725C68.1611 24.6283 70.4711 24.08 73.0378 24.08C75.1844 24.08 77.1328 24.4417 78.8828 25.165C80.6328 25.8883 82.1028 26.9383 83.2928 28.315L79.6528 31.675C77.9028 29.8317 75.7911 28.91 73.3178 28.91C71.7544 28.91 70.3661 29.2367 69.1528 29.89C67.9394 30.5433 66.9944 31.465 66.3178 32.655C65.6411 33.845 65.3028 35.21 65.3028 36.75C65.3028 38.2667 65.6411 39.62 66.3178 40.81C66.9944 42 67.9278 42.9333 69.1178 43.61C70.3311 44.2633 71.7078 44.59 73.2478 44.59C74.8811 44.59 76.3511 44.24 77.6578 43.54V36.365ZM87.7197 30.17H93.1797V49H87.7197V30.17ZM90.4497 27.545C89.4464 27.545 88.6297 27.2533 87.9997 26.67C87.3697 26.0867 87.0547 25.3633 87.0547 24.5C87.0547 23.6367 87.3697 22.9133 87.9997 22.33C88.6297 21.7467 89.4464 21.455 90.4497 21.455C91.453 21.455 92.2697 21.735 92.8997 22.295C93.5297 22.855 93.8447 23.555 93.8447 24.395C93.8447 25.305 93.5297 26.0633 92.8997 26.67C92.2697 27.2533 91.453 27.545 90.4497 27.545ZM116.937 30.17L108.992 49H103.357L95.4471 30.17H101.082L106.297 42.98L111.687 30.17H116.937ZM137.097 39.655C137.097 39.725 137.062 40.215 136.992 41.125H122.747C123.004 42.2917 123.611 43.2133 124.567 43.89C125.524 44.5667 126.714 44.905 128.137 44.905C129.117 44.905 129.981 44.765 130.727 44.485C131.497 44.1817 132.209 43.715 132.862 43.085L135.767 46.235C133.994 48.265 131.404 49.28 127.997 49.28C125.874 49.28 123.996 48.8717 122.362 48.055C120.729 47.215 119.469 46.06 118.582 44.59C117.696 43.12 117.252 41.4517 117.252 39.585C117.252 37.7417 117.684 36.085 118.547 34.615C119.434 33.1217 120.636 31.9667 122.152 31.15C123.692 30.31 125.407 29.89 127.297 29.89C129.141 29.89 130.809 30.2867 132.302 31.08C133.796 31.8733 134.962 33.0167 135.802 34.51C136.666 35.98 137.097 37.695 137.097 39.655ZM127.332 34.02C126.096 34.02 125.057 34.37 124.217 35.07C123.377 35.77 122.864 36.7267 122.677 37.94H131.952C131.766 36.75 131.252 35.805 130.412 35.105C129.572 34.3817 128.546 34.02 127.332 34.02ZM170 44.45V49H151.03V24.5H169.545V29.05H156.665V34.37H168.04V38.78H156.665V44.45H170ZM180.324 49.28C178.761 49.28 177.233 49.0933 175.739 48.72C174.246 48.3233 173.056 47.8333 172.169 47.25L173.989 43.33C174.829 43.8667 175.844 44.31 177.034 44.66C178.224 44.9867 179.391 45.15 180.534 45.15C182.844 45.15 183.999 44.5783 183.999 43.435C183.999 42.8983 183.684 42.5133 183.054 42.28C182.424 42.0467 181.456 41.8483 180.149 41.685C178.609 41.4517 177.338 41.1833 176.334 40.88C175.331 40.5767 174.456 40.04 173.709 39.27C172.986 38.5 172.624 37.4033 172.624 35.98C172.624 34.79 172.963 33.74 173.639 32.83C174.339 31.8967 175.343 31.1733 176.649 30.66C177.979 30.1467 179.543 29.89 181.339 29.89C182.669 29.89 183.988 30.0417 185.294 30.345C186.624 30.625 187.721 31.0217 188.584 31.535L186.764 35.42C185.108 34.4867 183.299 34.02 181.339 34.02C180.173 34.02 179.298 34.1833 178.714 34.51C178.131 34.8367 177.839 35.2567 177.839 35.77C177.839 36.3533 178.154 36.7617 178.784 36.995C179.414 37.2283 180.418 37.45 181.794 37.66C183.334 37.9167 184.594 38.1967 185.574 38.5C186.554 38.78 187.406 39.305 188.129 40.075C188.853 40.845 189.214 41.9183 189.214 43.295C189.214 44.4617 188.864 45.5 188.164 46.41C187.464 47.32 186.438 48.0317 185.084 48.545C183.754 49.035 182.168 49.28 180.324 49.28ZM198.918 49.28C197.355 49.28 195.826 49.0933 194.333 48.72C192.84 48.3233 191.65 47.8333 190.763 47.25L192.583 43.33C193.423 43.8667 194.438 44.31 195.628 44.66C196.818 44.9867 197.985 45.15 199.128 45.15C201.438 45.15 202.593 44.5783 202.593 43.435C202.593 42.8983 202.278 42.5133 201.648 42.28C201.018 42.0467 200.05 41.8483 198.743 41.685C197.203 41.4517 195.931 41.1833 194.928 40.88C193.925 40.5767 193.05 40.04 192.303 39.27C191.58 38.5 191.218 37.4033 191.218 35.98C191.218 34.79 191.556 33.74 192.233 32.83C192.933 31.8967 193.936 31.1733 195.243 30.66C196.573 30.1467 198.136 29.89 199.933 29.89C201.263 29.89 202.581 30.0417 203.888 30.345C205.218 30.625 206.315 31.0217 207.178 31.535L205.358 35.42C203.701 34.4867 201.893 34.02 199.933 34.02C198.766 34.02 197.891 34.1833 197.308 34.51C196.725 34.8367 196.433 35.2567 196.433 35.77C196.433 36.3533 196.748 36.7617 197.378 36.995C198.008 37.2283 199.011 37.45 200.388 37.66C201.928 37.9167 203.188 38.1967 204.168 38.5C205.148 38.78 206 39.305 206.723 40.075C207.446 40.845 207.808 41.9183 207.808 43.295C207.808 44.4617 207.458 45.5 206.758 46.41C206.058 47.32 205.031 48.0317 203.678 48.545C202.348 49.035 200.761 49.28 198.918 49.28ZM229.622 39.655C229.622 39.725 229.587 40.215 229.517 41.125H215.272C215.528 42.2917 216.135 43.2133 217.092 43.89C218.048 44.5667 219.238 44.905 220.662 44.905C221.642 44.905 222.505 44.765 223.252 44.485C224.022 44.1817 224.733 43.715 225.387 43.085L228.292 46.235C226.518 48.265 223.928 49.28 220.522 49.28C218.398 49.28 216.52 48.8717 214.887 48.055C213.253 47.215 211.993 46.06 211.107 44.59C210.22 43.12 209.777 41.4517 209.777 39.585C209.777 37.7417 210.208 36.085 211.072 34.615C211.958 33.1217 213.16 31.9667 214.677 31.15C216.217 30.31 217.932 29.89 219.822 29.89C221.665 29.89 223.333 30.2867 224.827 31.08C226.32 31.8733 227.487 33.0167 228.327 34.51C229.19 35.98 229.622 37.695 229.622 39.655ZM219.857 34.02C218.62 34.02 217.582 34.37 216.742 35.07C215.902 35.77 215.388 36.7267 215.202 37.94H224.477C224.29 36.75 223.777 35.805 222.937 35.105C222.097 34.3817 221.07 34.02 219.857 34.02ZM244.702 29.89C247.035 29.89 248.913 30.59 250.337 31.99C251.783 33.39 252.507 35.4667 252.507 38.22V49H247.047V39.06C247.047 37.5667 246.72 36.4583 246.067 35.735C245.413 34.9883 244.468 34.615 243.232 34.615C241.855 34.615 240.758 35.0467 239.942 35.91C239.125 36.75 238.717 38.01 238.717 39.69V49H233.257V30.17H238.472V32.375C239.195 31.5817 240.093 30.975 241.167 30.555C242.24 30.1117 243.418 29.89 244.702 29.89ZM269.601 48.09C269.064 48.4867 268.399 48.79 267.606 49C266.836 49.1867 266.019 49.28 265.156 49.28C262.916 49.28 261.178 48.7083 259.941 47.565C258.728 46.4217 258.121 44.7417 258.121 42.525V34.79H255.216V30.59H258.121V26.005H263.581V30.59H268.271V34.79H263.581V42.455C263.581 43.2483 263.779 43.8667 264.176 44.31C264.596 44.73 265.179 44.94 265.926 44.94C266.789 44.94 267.524 44.7067 268.131 44.24L269.601 48.09ZM272.666 30.17H278.126V49H272.666V30.17ZM275.396 27.545C274.393 27.545 273.576 27.2533 272.946 26.67C272.316 26.0867 272.001 25.3633 272.001 24.5C272.001 23.6367 272.316 22.9133 272.946 22.33C273.576 21.7467 274.393 21.455 275.396 21.455C276.399 21.455 277.216 21.735 277.846 22.295C278.476 22.855 278.791 23.555 278.791 24.395C278.791 25.305 278.476 26.0633 277.846 26.67C277.216 27.2533 276.399 27.545 275.396 27.545ZM290.788 29.89C293.705 29.89 295.945 30.59 297.508 31.99C299.072 33.3667 299.853 35.455 299.853 38.255V49H294.743V46.655C293.717 48.405 291.803 49.28 289.003 49.28C287.557 49.28 286.297 49.035 285.223 48.545C284.173 48.055 283.368 47.3783 282.808 46.515C282.248 45.6517 281.968 44.6717 281.968 43.575C281.968 41.825 282.622 40.4483 283.928 39.445C285.258 38.4417 287.3 37.94 290.053 37.94H294.393C294.393 36.75 294.032 35.84 293.308 35.21C292.585 34.5567 291.5 34.23 290.053 34.23C289.05 34.23 288.058 34.3933 287.078 34.72C286.122 35.0233 285.305 35.4433 284.628 35.98L282.668 32.165C283.695 31.4417 284.92 30.8817 286.343 30.485C287.79 30.0883 289.272 29.89 290.788 29.89ZM290.368 45.605C291.302 45.605 292.13 45.395 292.853 44.975C293.577 44.5317 294.09 43.89 294.393 43.05V41.125H290.648C288.408 41.125 287.288 41.86 287.288 43.33C287.288 44.03 287.557 44.59 288.093 45.01C288.653 45.4067 289.412 45.605 290.368 45.605ZM304.795 23.03H310.255V49H304.795V23.03Z" fill="#8CC9BA"/>
<path d="M42.3631 29.7777C41.8855 28.6552 41.142 27.6677 40.1978 26.9016C39.2535 26.1355 38.1372 25.6142 36.9465 25.3832C35.7558 25.1522 34.5271 25.2186 33.3678 25.5766C32.2085 25.9347 31.1541 26.5734 30.2966 27.4369L30.2197 27.5144L30.1427 27.4369C29.4382 26.7279 28.5992 26.169 27.6756 25.7934C26.7521 25.4179 25.763 25.2335 24.7672 25.2511C23.7714 25.2688 22.7893 25.4881 21.8794 25.8962C20.9696 26.3042 20.1506 26.8925 19.4713 27.626C18.792 28.3595 18.2663 29.2233 17.9255 30.1658C17.5847 31.1082 17.4358 32.1102 17.4876 33.1119C17.5394 34.1136 17.791 35.0945 18.2272 35.9962C18.6635 36.8979 19.2755 37.7019 20.0268 38.3604L29.6037 46.7474C29.7746 46.8968 29.9933 46.9791 30.2197 46.9791C30.4461 46.9791 30.6648 46.8968 30.8358 46.7474L40.4125 38.3604C41.6011 37.3242 42.4309 35.9336 42.7816 34.3903C43.1324 32.847 42.9858 31.2313 42.3631 29.7777ZM39.1807 36.933L30.2197 44.7808L21.2589 36.933C20.3711 36.159 19.7512 35.1203 19.4891 33.9675C19.227 32.8147 19.3363 31.6078 19.8013 30.5218C20.1525 29.6797 20.7062 28.9387 21.4125 28.3657C22.1188 27.7928 22.9555 27.4057 23.8473 27.2396C24.2037 27.1705 24.5658 27.1357 24.9287 27.1356C25.652 27.1355 26.3682 27.2803 27.0354 27.5617C27.7026 27.843 28.3076 28.2553 28.8151 28.7744L29.5559 29.5203C29.643 29.6081 29.7465 29.6778 29.8603 29.7254C29.9742 29.7729 30.0963 29.7974 30.2196 29.7974C30.3428 29.7974 30.4649 29.7729 30.5788 29.7254C30.6927 29.6778 30.7961 29.6081 30.8833 29.5203L31.624 28.7744C32.2645 28.1293 33.0522 27.6522 33.9181 27.3847C34.7841 27.1172 35.7019 27.0675 36.5914 27.2399C37.4808 27.4124 38.3148 27.8017 39.0202 28.3739C39.7257 28.9461 40.2811 29.6837 40.638 30.5221C41.1029 31.608 41.2123 32.8148 40.9502 33.9676C40.6882 35.1203 40.0684 36.159 39.1807 36.933ZM25.8509 29.9734C25.8509 30.2241 25.752 30.4646 25.5759 30.6419C25.3999 30.8192 25.1611 30.9188 24.9122 30.9188C24.5949 30.9154 24.2824 30.9973 24.0071 31.156C23.7317 31.3147 23.5033 31.5446 23.3455 31.8218C23.1547 32.2213 23.1028 32.6739 23.1981 33.1067C23.2935 33.5396 23.5305 33.9276 23.8712 34.2084C24.0591 34.373 24.1745 34.606 24.1919 34.8562C24.2093 35.1064 24.1273 35.3533 23.9639 35.5427C23.8005 35.732 23.5691 35.8482 23.3207 35.8657C23.0722 35.8832 22.827 35.8006 22.6391 35.636C21.9703 35.0722 21.5131 34.2949 21.3434 33.4333C21.1737 32.5717 21.3018 31.6776 21.7063 30.8994C22.0281 30.3293 22.4945 29.8556 23.0578 29.5268C23.6211 29.1979 24.2611 29.0258 24.9122 29.0279C25.1611 29.0279 25.3999 29.1275 25.5759 29.3048C25.752 29.4821 25.8509 29.7226 25.8509 29.9734Z" fill="#8CC9BA"/>
<path d="M36.9629 54.8836C38.3613 54.6796 41.0639 54.2877 42.7766 54.0558C46.1725 53.5952 47.8694 56.5077 45.2341 57.4009C44.6803 57.3786 34.1559 61.1717 30.2061 61.2917C27.4476 61.3762 20.8295 59.338 17.1857 58.1352L17.2607 60.2333L15.3706 60.1649L6.11731 51.9394L7.27946 51.0707L15.2962 58.0824L14.9534 48.4953L10.4835 43.6976L11.6936 42.8929L16.8875 48.5652L16.9351 50.0901L22.3995 50.117L27.4309 53.3638C28.6787 53.4328 32.8602 53.6686 34.7177 53.8161C35.7017 53.8943 36.4964 54.248 36.9629 54.8836ZM17.1408 56.6949C20.4106 57.7971 27.4069 60.0396 29.9804 59.9612C31.9703 59.9013 44.5167 56.4758 44.3117 56.1882C45.0301 55.9451 44.4853 55.1993 43.2666 55.3654C41.3896 55.6195 38.3938 56.0562 37.1254 56.2418C36.853 56.8747 35.8923 57.4969 34.8976 57.4569C32.8303 57.5633 25.8574 57.4796 25.8382 57.4788L25.7298 56.1478C25.7485 56.1485 32.6085 56.2302 34.608 56.13C35.3798 56.1611 35.7813 55.2304 34.656 55.1402C32.0732 54.9351 29.3527 54.7679 26.7646 54.6637L21.7779 51.4447L16.9765 51.4216L17.1408 56.6949Z" fill="#8CC9BA"/>
<path d="M24.8882 16.6255C23.4967 16.8351 20.8071 17.2378 19.1026 17.4766C15.723 17.9508 14.0198 15.0469 16.64 14.1434C17.1916 14.1635 27.6547 10.3294 31.5875 10.1934C34.3341 10.0976 40.9339 12.1077 44.568 13.2949L44.4837 11.1983L46.3662 11.2589L55.6187 19.442L54.4653 20.315L46.4499 13.3399L46.8352 22.9203L51.3085 27.697L50.1071 28.5062L44.9088 22.8583L44.8545 21.3344L39.4127 21.3299L34.3874 18.1055C33.1446 18.0416 28.9794 17.823 27.129 17.6833C26.1487 17.6091 25.3557 17.2588 24.8882 16.6255ZM44.6193 14.7342C41.3581 13.646 34.3807 11.4333 31.8183 11.5223C29.837 11.5903 17.3586 15.065 17.5641 15.3516C16.8498 15.5976 17.3958 16.3407 18.6087 16.1698C20.4767 15.9081 23.458 15.4594 24.7202 15.2687C24.9885 14.6351 25.9424 14.0093 26.9331 14.0452C28.9913 13.9304 35.9355 13.9856 35.9546 13.9863L36.0687 15.3161C36.0501 15.3155 29.2183 15.2619 27.2276 15.3702C26.4589 15.3423 26.0633 16.2741 27.1843 16.3596C29.7573 16.554 32.4673 16.71 35.045 16.8036L40.0256 20.0004L44.8071 20.0039L44.6193 14.7342Z" fill="#8CC9BA"/>
</svg>