<svg width="135" height="135" viewBox="0 0 135 135" fill="none" xmlns="http://www.w3.org/2000/svg">
<path d="M25.0704 104.524H109.544C111.192 104.524 112.53 103.186 112.53 101.537V17.0658C112.53 15.4173 111.192 14.0794 109.544 14.0794H78.1476C78.7105 13.7509 79.2092 13.4 79.5915 13.0192C81.0324 11.5783 81.8253 9.66398 81.8253 7.62725C81.8253 5.59053 81.0324 3.67625 79.5915 2.23532C78.1521 0.792888 76.2348 0 74.1981 0C72.1614 0 70.2471 0.792888 68.8076 2.23382C68.4582 2.58323 68.0207 3.11929 67.5295 4.04358C67.0397 3.11929 66.6022 2.58323 66.2528 2.23382C64.8118 0.792888 62.8976 0 60.8608 0C58.8226 0 56.9083 0.792888 55.4689 2.23382C54.028 3.67476 53.2351 5.58904 53.2351 7.62576C53.2351 9.66248 54.028 11.5768 55.4689 13.0177C55.8497 13.4 56.3499 13.7509 56.9143 14.0794H25.0704C23.4219 14.0794 22.084 15.4173 22.084 17.0658V101.537C22.084 103.186 23.4219 104.524 25.0704 104.524ZM28.0568 62.2873H64.3206V98.5511H28.0568V62.2873ZM70.2934 98.5511V62.2873H106.557V98.5511H70.2934ZM106.557 56.3145H70.2934V20.0522H106.557V56.3145ZM73.0304 6.45659C73.3425 6.14451 73.7561 5.97279 74.1981 5.97279C74.6401 5.97279 75.0552 6.14451 75.3672 6.45808C75.6793 6.77016 75.851 7.18527 75.851 7.62576C75.851 8.06625 75.6793 8.48136 75.3882 8.77254C74.8596 9.22199 73.22 9.79239 71.5641 10.2583C72.0285 8.6053 72.5929 6.97174 73.0304 6.45659ZM59.6917 6.45659C60.0037 6.14451 60.4188 5.97279 60.8608 5.97279C61.3013 5.97279 61.7164 6.14451 62.0061 6.4327C62.4571 6.96129 63.0275 8.60231 63.4918 10.2583C61.8404 9.79538 60.2068 9.23095 59.6917 8.79344C59.3796 8.48136 59.2079 8.06625 59.2079 7.62576C59.2079 7.18527 59.3781 6.77016 59.6917 6.45659ZM64.3206 20.0522V56.3145H28.0568V20.0522H64.3206Z" fill="#8CC9BA"/>
<path d="M133.737 122.069L133.602 121.934C133.537 121.863 133.469 121.794 133.399 121.73L125.902 114.232C124.736 113.068 122.845 113.068 121.679 114.232C120.513 115.399 120.513 117.29 121.679 118.455L124.17 120.949H2.9864C1.33791 120.949 0 122.287 0 123.935C0 125.584 1.33791 126.922 2.9864 126.922H124.661L121.681 129.902C120.516 131.068 120.516 132.959 121.681 134.125C122.266 134.709 123.028 135 123.792 135C124.558 135 125.318 134.709 125.903 134.125L133.737 126.291C134.297 125.732 134.612 124.97 134.612 124.18C134.612 123.389 134.297 122.629 133.737 122.069Z" fill="#8CC9BA"/>
</svg>
