<svg width="119" height="122" viewBox="0 0 119 122" fill="none" xmlns="http://www.w3.org/2000/svg">
<path d="M70.7237 75.5186C71.3041 75.9069 71.9725 76.1017 72.6422 76.1017C73.3119 76.1017 73.9815 75.9069 74.5606 75.5186C75.7417 74.7312 103.514 56.0677 113.745 37.3203C116.277 33.3995 117.612 28.8713 117.612 24.2132C117.612 10.8599 106.749 0 93.3987 0C83.5805 0 76.3099 8.14593 72.6435 12.4022C68.9757 8.14593 61.7065 0 51.8897 0C38.5364 0 27.6738 10.8599 27.6738 24.2132C27.6738 28.8699 29.0119 33.3982 31.5405 37.3203C41.7699 56.0677 69.5426 74.7312 70.7237 75.5186ZM51.8897 6.91612C58.8059 6.91612 64.5909 13.6469 67.7013 17.2633C69.6333 19.5118 70.698 20.7524 72.6435 20.7524C74.589 20.7524 75.6538 19.5118 77.5884 17.2633C80.6961 13.6455 86.4812 6.91612 93.4 6.91612C102.937 6.91612 110.696 14.6765 110.696 24.2132C110.696 27.5698 109.72 30.8371 107.878 33.6552C107.826 33.735 107.776 33.8176 107.731 33.9015C99.8304 48.4954 79.0685 63.8943 72.6449 68.432C66.2212 63.8943 45.462 48.4954 37.5583 33.9015C37.5123 33.8176 37.4636 33.735 37.4121 33.6552C35.5695 30.8371 34.594 27.5711 34.594 24.2132C34.5913 14.6778 42.3503 6.91612 51.8897 6.91612Z" fill="#8CC9BA"/>
<path d="M114.241 74.6826C107.914 70.9769 102.609 76.4725 100.611 78.5398C96.3996 82.9029 91.3261 87.216 88.7583 89.3347C87.6678 88.8463 86.4651 88.569 85.1987 88.5568C77.3748 88.136 65.0443 86.7249 61.9583 84.8904C58.6423 82.9192 55.9865 80.994 53.6446 79.2974C46.9138 74.4188 41.5996 70.5684 28.364 70.5684C24.5271 70.5684 21.1637 71.6318 17.9099 72.6627C14.5709 73.7207 11.4159 74.7205 7.61017 74.7205C3.41206 74.7205 0 78.1325 0 82.3306V101.699C0 105.897 3.41206 109.309 7.61017 109.309C14.8456 109.309 26.1573 109.681 28.6535 110.515C33.1519 112.014 43.6952 118.266 47.3779 120.547C47.4252 120.575 47.4726 120.605 47.5199 120.63C48.8526 121.37 50.3638 121.763 51.8899 121.763H87.0658C90.789 121.763 94.9276 118.318 96.363 115.936C100.975 108.282 117.513 87.4569 117.68 87.2471C117.828 87.0577 117.957 86.8548 118.064 86.641C120.207 82.355 118.562 77.2125 114.241 74.6826ZM87.0644 114.843H51.8885C51.5557 114.843 51.2269 114.763 50.9334 114.613C49.6332 113.808 36.8346 105.949 30.8411 103.952C26.3846 102.466 10.7057 102.39 7.61017 102.39C7.22729 102.39 6.91612 102.081 6.91612 101.699V82.3293C6.91612 81.9451 7.22729 81.6352 7.61017 81.6352C12.4834 81.6352 16.4772 80.3703 19.9961 79.2568C23.0023 78.3057 25.5972 77.4845 28.364 77.4845C39.3551 77.4845 43.2055 80.2742 49.5858 84.8971C52.0468 86.6803 54.8379 88.7015 58.4204 90.8351C60.2198 91.9053 63.2003 92.7454 66.542 93.3989C73.7246 94.8032 82.5714 95.3444 84.9133 95.4688C84.9728 95.4729 85.0337 95.4729 85.0959 95.4729C86.2391 95.4729 87.1713 96.4037 87.1713 97.5496C87.1713 98.6942 86.2405 99.6223 85.0959 99.6223C85.035 99.6223 84.9755 99.6264 84.9133 99.6291L58.737 101.006C56.6521 100.931 51.7329 97.4468 48.4656 95.136C47.6201 94.5353 46.7948 93.959 45.983 93.3989C44.2148 92.1758 42.5263 91.0773 40.9813 90.3047C39.2725 89.4456 37.1958 90.1424 36.3421 91.8511C35.4884 93.5599 36.1798 95.638 37.8885 96.493C39.6703 97.3819 42.0014 99.0338 44.4705 100.782C49.6589 104.456 54.5619 107.928 58.8073 107.928C58.8682 107.928 58.9305 107.925 58.99 107.924L85.2001 106.542C90.1125 106.488 94.0928 102.473 94.0928 97.551C94.0928 96.4375 93.8913 95.3714 93.5178 94.3838C96.2927 92.0852 101.29 87.8005 105.591 83.3494C108.538 80.2972 109.714 80.0483 110.749 80.6544C111.666 81.1928 112.338 82.2441 111.984 83.298C109.685 86.2 94.9939 104.808 90.44 112.367C89.8325 113.368 87.8031 114.764 87.0644 114.843Z" fill="#8CC9BA"/>
</svg>
