<svg width="134" height="100" viewBox="0 0 134 100" fill="none" xmlns="http://www.w3.org/2000/svg">
<path d="M134 2.38095C134 1.74948 133.748 1.14388 133.299 0.697365C132.85 0.25085 132.242 0 131.607 0H2.39286C1.75823 0 1.1496 0.25085 0.700852 0.697365C0.252104 1.14388 0 1.74948 0 2.38095V97.619C0.0025203 98.2497 0.255434 98.8539 0.703636 99.2999C1.15184 99.7458 1.75901 99.9975 2.39286 100H131.607C132.241 99.9977 132.848 99.7461 133.297 99.3001C133.745 98.854 133.998 98.2498 134 97.619V2.38095ZM4.78571 16.6319L48.2244 48.6486L4.78571 91.8712V16.6319ZM52.1121 51.514L65.5758 61.4374C65.9879 61.7407 66.4869 61.9044 66.9995 61.9044C67.5121 61.9044 68.0112 61.7407 68.4233 61.4374L81.8876 51.5136L125.831 95.2381H8.16945L52.1121 51.514ZM85.7763 48.6483L129.214 16.6326V91.8707L85.7763 48.6483ZM129.214 4.7619V10.7043L67 56.5614L4.78571 10.7052V4.7619H129.214Z" fill="#8CC9BA"/>
</svg>
