<svg width="123" height="112" viewBox="0 0 123 112" fill="none" xmlns="http://www.w3.org/2000/svg">
<path d="M0 101.395C0 102.559 0.646651 103.464 1.68129 103.982L19.1409 112V86.3926L0 77.5981V101.395Z" fill="#8CC9BA"/>
<path d="M23.0195 65.0532C22.2435 64.6652 21.4676 64.6652 20.6916 65.0532L3.36133 72.9423L21.8556 81.3488L40.3498 72.9423L23.0195 65.0532Z" fill="#8CC9BA"/>
<path d="M24.7012 112L42.1608 103.982C43.1954 103.464 43.8421 102.559 43.8421 101.395V77.5981L24.8305 86.2633V112H24.7012Z" fill="#8CC9BA"/>
<path d="M26.5123 54.836C32.2028 45.0069 41.9026 27.03 41.9026 19.3995C41.9026 8.66513 33.2375 0 22.5031 0C11.7686 0 3.10352 8.66513 3.10352 19.3995C3.10352 27.03 12.9326 45.0069 18.4938 54.836C20.4338 57.8106 24.7017 57.8106 26.5123 54.836ZM13.5793 19.3995C13.5793 14.485 17.5885 10.3464 22.6324 10.3464C27.6763 10.3464 31.6855 14.3557 31.6855 19.3995C31.6855 24.3141 27.6763 28.4527 22.6324 28.4527C17.5885 28.4527 13.5793 24.3141 13.5793 19.3995Z" fill="#8CC9BA"/>
<path d="M121.572 35.9536L108.251 22.6326C106.57 20.9513 103.854 20.9513 102.302 22.6326C100.62 24.3138 100.62 27.0298 102.302 28.5817L108.38 34.6603H75.1424C65.8306 34.6603 58.2001 42.2907 58.2001 51.6025C58.2001 60.9143 65.8306 68.5448 75.1424 68.5448H88.0754C92.7313 68.5448 96.4819 72.2954 96.4819 76.9512C96.4819 81.6071 92.7313 85.3577 88.0754 85.3577H50.1816V93.8935H88.0754C97.3872 93.8935 105.018 86.263 105.018 76.9512C105.018 67.6395 97.3872 60.009 88.0754 60.009H75.1424C70.4865 60.009 66.7359 56.2584 66.7359 51.6025C66.7359 46.9466 70.4865 43.1961 75.1424 43.1961H108.38L102.302 49.2746C100.62 50.9559 100.62 53.6718 102.302 55.2238C103.078 55.9998 104.242 56.5171 105.276 56.5171C106.311 56.5171 107.475 56.1291 108.251 55.2238L121.572 41.9028C123.253 40.3508 123.253 37.6349 121.572 35.9536Z" fill="#8CC9BA"/>
</svg>
